<!DOCTYPE svg PUBLIC "-//W3C//DTD SVG 1.1//EN" "http://www.w3.org/Graphics/SVG/1.1/DTD/svg11.dtd">
<!-- Uploaded to: SVG Repo, www.svgrepo.com, Transformed by: SVG Repo Mixer Tools -->
<svg fill="#000000" version="1.1" id="Layer_1" xmlns="http://www.w3.org/2000/svg" xmlns:xlink="http://www.w3.org/1999/xlink" viewBox="0 0 512 512" xml:space="preserve" width="800px" height="800px">
<g id="SVGRepo_bgCarrier" stroke-width="0"/>
<g id="SVGRepo_tracerCarrier" stroke-linecap="round" stroke-linejoin="round"/>
<g id="SVGRepo_iconCarrier"> <g> <g> <path d="M58.524,0v512h394.953V0H58.524z M422.129,480.653H89.871V134.385h332.259V480.653z M422.129,103.038H89.871V31.347 h332.259V103.038z"/> </g> </g> <g> <g> <rect x="352.925" y="54.974" width="23.509" height="23.509"/> </g> </g> <g> <g> <rect x="309.123" y="54.974" width="23.509" height="23.509"/> </g> </g> <g> <g> <path d="M256,174.08c-65.105,0-118.072,52.968-118.072,118.074c0,65.104,52.967,118.071,118.072,118.071 s118.072-52.967,118.072-118.072S321.105,174.08,256,174.08z M256,378.878c-47.821,0-86.725-38.905-86.725-86.726 s38.905-86.724,86.725-86.724s86.725,38.905,86.725,86.726S303.821,378.878,256,378.878z"/> </g> </g> <g> <g> <rect x="337.042" y="420.039" width="55.272" height="37.116"/> </g> </g> </g>
</svg>